%TF.GenerationSoftware,KiCad,Pcbnew,9.0.7*%
%TF.CreationDate,2026-03-12T18:10:57+00:00*%
%TF.ProjectId,jellyboard,6a656c6c-7962-46f6-9172-642e6b696361,rev?*%
%TF.SameCoordinates,Original*%
%TF.FileFunction,Soldermask,Top*%
%TF.FilePolarity,Negative*%
%FSLAX46Y46*%
G04 Gerber Fmt 4.6, Leading zero omitted, Abs format (unit mm)*
G04 Created by KiCad (PCBNEW 9.0.7) date 2026-03-12 18:10:57*
%MOMM*%
%LPD*%
G01*
G04 APERTURE LIST*
G04 Aperture macros list*
%AMRoundRect*
0 Rectangle with rounded corners*
0 $1 Rounding radius*
0 $2 $3 $4 $5 $6 $7 $8 $9 X,Y pos of 4 corners*
0 Add a 4 corners polygon primitive as box body*
4,1,4,$2,$3,$4,$5,$6,$7,$8,$9,$2,$3,0*
0 Add four circle primitives for the rounded corners*
1,1,$1+$1,$2,$3*
1,1,$1+$1,$4,$5*
1,1,$1+$1,$6,$7*
1,1,$1+$1,$8,$9*
0 Add four rect primitives between the rounded corners*
20,1,$1+$1,$2,$3,$4,$5,0*
20,1,$1+$1,$4,$5,$6,$7,0*
20,1,$1+$1,$6,$7,$8,$9,0*
20,1,$1+$1,$8,$9,$2,$3,0*%
%AMFreePoly0*
4,1,37,0.800000,0.796148,0.878414,0.796148,1.032228,0.765552,1.177117,0.705537,1.307515,0.618408,1.418408,0.507515,1.505537,0.377117,1.565552,0.232228,1.596148,0.078414,1.596148,-0.078414,1.565552,-0.232228,1.505537,-0.377117,1.418408,-0.507515,1.307515,-0.618408,1.177117,-0.705537,1.032228,-0.765552,0.878414,-0.796148,0.800000,-0.796148,0.800000,-0.800000,-1.400000,-0.800000,
-1.403843,-0.796157,-1.439018,-0.796157,-1.511114,-0.766294,-1.566294,-0.711114,-1.596157,-0.639018,-1.596157,-0.603843,-1.600000,-0.600000,-1.600000,0.600000,-1.596157,0.603843,-1.596157,0.639018,-1.566294,0.711114,-1.511114,0.766294,-1.439018,0.796157,-1.403843,0.796157,-1.400000,0.800000,0.800000,0.800000,0.800000,0.796148,0.800000,0.796148,$1*%
%AMFreePoly1*
4,1,37,0.000000,0.796148,0.078414,0.796148,0.232228,0.765552,0.377117,0.705537,0.507515,0.618408,0.618408,0.507515,0.705537,0.377117,0.765552,0.232228,0.796148,0.078414,0.796148,-0.078414,0.765552,-0.232228,0.705537,-0.377117,0.618408,-0.507515,0.507515,-0.618408,0.377117,-0.705537,0.232228,-0.765552,0.078414,-0.796148,0.000000,-0.796148,0.000000,-0.800000,-0.600000,-0.800000,
-0.603843,-0.796157,-0.639018,-0.796157,-0.711114,-0.766294,-0.766294,-0.711114,-0.796157,-0.639018,-0.796157,-0.603843,-0.800000,-0.600000,-0.800000,0.600000,-0.796157,0.603843,-0.796157,0.639018,-0.766294,0.711114,-0.711114,0.766294,-0.639018,0.796157,-0.603843,0.796157,-0.600000,0.800000,0.000000,0.800000,0.000000,0.796148,0.000000,0.796148,$1*%
%AMFreePoly2*
4,1,37,0.603843,0.796157,0.639018,0.796157,0.711114,0.766294,0.766294,0.711114,0.796157,0.639018,0.796157,0.603843,0.800000,0.600000,0.800000,-0.600000,0.796157,-0.603843,0.796157,-0.639018,0.766294,-0.711114,0.711114,-0.766294,0.639018,-0.796157,0.603843,-0.796157,0.600000,-0.800000,0.000000,-0.800000,0.000000,-0.796148,-0.078414,-0.796148,-0.232228,-0.765552,-0.377117,-0.705537,
-0.507515,-0.618408,-0.618408,-0.507515,-0.705537,-0.377117,-0.765552,-0.232228,-0.796148,-0.078414,-0.796148,0.078414,-0.765552,0.232228,-0.705537,0.377117,-0.618408,0.507515,-0.507515,0.618408,-0.377117,0.705537,-0.232228,0.765552,-0.078414,0.796148,0.000000,0.796148,0.000000,0.800000,0.600000,0.800000,0.603843,0.796157,0.603843,0.796157,$1*%
%AMFreePoly3*
4,1,37,1.403843,0.796157,1.439018,0.796157,1.511114,0.766294,1.566294,0.711114,1.596157,0.639018,1.596157,0.603843,1.600000,0.600000,1.600000,-0.600000,1.596157,-0.603843,1.596157,-0.639018,1.566294,-0.711114,1.511114,-0.766294,1.439018,-0.796157,1.403843,-0.796157,1.400000,-0.800000,-0.800000,-0.800000,-0.800000,-0.796148,-0.878414,-0.796148,-1.032228,-0.765552,-1.177117,-0.705537,
-1.307515,-0.618408,-1.418408,-0.507515,-1.505537,-0.377117,-1.565552,-0.232228,-1.596148,-0.078414,-1.596148,0.078414,-1.565552,0.232228,-1.505537,0.377117,-1.418408,0.507515,-1.307515,0.618408,-1.177117,0.705537,-1.032228,0.765552,-0.878414,0.796148,-0.800000,0.796148,-0.800000,0.800000,1.400000,0.800000,1.403843,0.796157,1.403843,0.796157,$1*%
G04 Aperture macros list end*
%ADD10RoundRect,0.800000X-0.800000X-0.000010X0.800000X-0.000010X0.800000X0.000010X-0.800000X0.000010X0*%
%ADD11C,1.600000*%
%ADD12FreePoly0,0.000000*%
%ADD13FreePoly1,0.000000*%
%ADD14FreePoly2,0.000000*%
%ADD15FreePoly3,0.000000*%
%ADD16RoundRect,0.200000X-0.600000X-0.600000X0.600000X-0.600000X0.600000X0.600000X-0.600000X0.600000X0*%
%ADD17C,2.200000*%
%ADD18C,1.850000*%
%ADD19C,2.100000*%
%ADD20C,1.700000*%
%ADD21R,1.700000X1.700000*%
%ADD22C,1.400000*%
%ADD23R,1.000000X1.500000*%
G04 APERTURE END LIST*
%TO.C,5VPower1*%
G36*
X84000000Y-52750000D02*
G01*
X84300000Y-52750000D01*
X84300000Y-54250000D01*
X84000000Y-54250000D01*
X84000000Y-52750000D01*
G37*
%TD*%
D10*
%TO.C,A1*%
X112300000Y-52000000D03*
D11*
X111500000Y-52000000D03*
D10*
X112300000Y-54540000D03*
D11*
X111500000Y-54540000D03*
D12*
X112300000Y-57080000D03*
D13*
X111500000Y-57080000D03*
D10*
X112300000Y-59620000D03*
D11*
X111500000Y-59620000D03*
D10*
X112300000Y-62160000D03*
D11*
X111500000Y-62160000D03*
D10*
X112300000Y-64700000D03*
D11*
X111500000Y-64700000D03*
D10*
X112300000Y-67240000D03*
D11*
X111500000Y-67240000D03*
D12*
X112300000Y-69780000D03*
D13*
X111500000Y-69780000D03*
D10*
X112300000Y-72320000D03*
D11*
X111500000Y-72320000D03*
D10*
X112300000Y-74860000D03*
D11*
X111500000Y-74860000D03*
D10*
X112300000Y-77400000D03*
D11*
X111500000Y-77400000D03*
D10*
X112300000Y-79940000D03*
D11*
X111500000Y-79940000D03*
D12*
X112300000Y-82480000D03*
D13*
X111500000Y-82480000D03*
D10*
X112300000Y-85020000D03*
D11*
X111500000Y-85020000D03*
D10*
X112300000Y-87560000D03*
D11*
X111500000Y-87560000D03*
D10*
X112300000Y-90100000D03*
D11*
X111500000Y-90100000D03*
D10*
X112300000Y-92640000D03*
D11*
X111500000Y-92640000D03*
D12*
X112300000Y-95180000D03*
D13*
X111500000Y-95180000D03*
D10*
X112300000Y-97720000D03*
D11*
X111500000Y-97720000D03*
D10*
X112300000Y-100260000D03*
D11*
X111500000Y-100260000D03*
X93720000Y-100260000D03*
D10*
X92920000Y-100260000D03*
D11*
X93720000Y-97720000D03*
D10*
X92920000Y-97720000D03*
D14*
X93720000Y-95180000D03*
D15*
X92920000Y-95180000D03*
D11*
X93720000Y-92640000D03*
D10*
X92920000Y-92640000D03*
D11*
X93720000Y-90100000D03*
D10*
X92920000Y-90100000D03*
D11*
X93720000Y-87560000D03*
D10*
X92920000Y-87560000D03*
D11*
X93720000Y-85020000D03*
D10*
X92920000Y-85020000D03*
D14*
X93720000Y-82480000D03*
D15*
X92920000Y-82480000D03*
D11*
X93720000Y-79940000D03*
D10*
X92920000Y-79940000D03*
D11*
X93720000Y-77400000D03*
D10*
X92920000Y-77400000D03*
D11*
X93720000Y-74860000D03*
D10*
X92920000Y-74860000D03*
D11*
X93720000Y-72320000D03*
D10*
X92920000Y-72320000D03*
D14*
X93720000Y-69780000D03*
D15*
X92920000Y-69780000D03*
D11*
X93720000Y-67240000D03*
D10*
X92920000Y-67240000D03*
D11*
X93720000Y-64700000D03*
D10*
X92920000Y-64700000D03*
D11*
X93720000Y-62160000D03*
D10*
X92920000Y-62160000D03*
D11*
X93720000Y-59620000D03*
D10*
X92920000Y-59620000D03*
D14*
X93720000Y-57080000D03*
D15*
X92920000Y-57080000D03*
D11*
X93720000Y-54540000D03*
D10*
X92920000Y-54540000D03*
D16*
X93720000Y-52000000D03*
D12*
X92920000Y-52000000D03*
D17*
X105335000Y-52130000D03*
D18*
X105035000Y-55160000D03*
X100185000Y-55160000D03*
D17*
X99885000Y-52130000D03*
%TD*%
D19*
%TO.C,H4*%
X108312068Y-99622975D03*
%TD*%
%TO.C,H3*%
X96946183Y-99623282D03*
%TD*%
%TO.C,H2*%
X96919274Y-52623556D03*
%TD*%
%TO.C,H1*%
X108261122Y-52626853D03*
%TD*%
D20*
%TO.C,M1*%
X125000000Y-96040000D03*
X117380000Y-96040000D03*
D21*
X117380000Y-93500000D03*
D20*
X125000000Y-93500000D03*
X125000000Y-98580000D03*
X117380000Y-98580000D03*
%TD*%
D21*
%TO.C,LED4*%
X124500000Y-72000000D03*
D20*
X124500000Y-74540000D03*
%TD*%
D21*
%TO.C,LED3*%
X119000000Y-72000000D03*
D20*
X119000000Y-74540000D03*
%TD*%
D21*
%TO.C,LED2*%
X124500000Y-64000000D03*
D20*
X124500000Y-66540000D03*
%TD*%
D21*
%TO.C,LED1*%
X119000000Y-64000000D03*
D20*
X119000000Y-66540000D03*
%TD*%
D21*
%TO.C,I2C1*%
X117380000Y-81000000D03*
D20*
X119920000Y-81000000D03*
X122460000Y-81000000D03*
X125000000Y-81000000D03*
%TD*%
D22*
%TO.C,R4*%
X126500000Y-51500000D03*
X126500000Y-59120000D03*
%TD*%
%TO.C,R3*%
X123000000Y-51500000D03*
X123000000Y-59120000D03*
%TD*%
%TO.C,R2*%
X119500000Y-51500000D03*
X119500000Y-59120000D03*
%TD*%
%TO.C,R1*%
X116000000Y-51500000D03*
X116000000Y-59120000D03*
%TD*%
D20*
%TO.C,NeoPix6*%
X87120000Y-89000000D03*
X84580000Y-89000000D03*
D21*
X82040000Y-89000000D03*
%TD*%
D20*
%TO.C,NeoPix5*%
X87040000Y-83500000D03*
X84500000Y-83500000D03*
D21*
X81960000Y-83500000D03*
%TD*%
%TO.C,NeoPix8*%
X81960000Y-101000000D03*
D20*
X84500000Y-101000000D03*
X87040000Y-101000000D03*
%TD*%
D21*
%TO.C,NeoPix7*%
X81960000Y-95000000D03*
D20*
X84500000Y-95000000D03*
X87040000Y-95000000D03*
%TD*%
D21*
%TO.C,NeoPix4*%
X82040000Y-78000000D03*
D20*
X84580000Y-78000000D03*
X87120000Y-78000000D03*
%TD*%
D21*
%TO.C,NeoPix3*%
X81960000Y-72500000D03*
D20*
X84500000Y-72500000D03*
X87040000Y-72500000D03*
%TD*%
D21*
%TO.C,NeoPix2*%
X81920000Y-67000000D03*
D20*
X84460000Y-67000000D03*
X87000000Y-67000000D03*
%TD*%
D21*
%TO.C,NeoPix1*%
X81920000Y-61500000D03*
D20*
X84460000Y-61500000D03*
X87000000Y-61500000D03*
%TD*%
D23*
%TO.C,5VPower1*%
X83500000Y-53500000D03*
X84800000Y-53500000D03*
%TD*%
M02*
