%TF.GenerationSoftware,KiCad,Pcbnew,9.0.7*%
%TF.CreationDate,2026-03-12T18:10:57+00:00*%
%TF.ProjectId,jellyboard,6a656c6c-7962-46f6-9172-642e6b696361,rev?*%
%TF.SameCoordinates,Original*%
%TF.FileFunction,Soldermask,Bot*%
%TF.FilePolarity,Negative*%
%FSLAX46Y46*%
G04 Gerber Fmt 4.6, Leading zero omitted, Abs format (unit mm)*
G04 Created by KiCad (PCBNEW 9.0.7) date 2026-03-12 18:10:57*
%MOMM*%
%LPD*%
G01*
G04 APERTURE LIST*
G04 Aperture macros list*
%AMRoundRect*
0 Rectangle with rounded corners*
0 $1 Rounding radius*
0 $2 $3 $4 $5 $6 $7 $8 $9 X,Y pos of 4 corners*
0 Add a 4 corners polygon primitive as box body*
4,1,4,$2,$3,$4,$5,$6,$7,$8,$9,$2,$3,0*
0 Add four circle primitives for the rounded corners*
1,1,$1+$1,$2,$3*
1,1,$1+$1,$4,$5*
1,1,$1+$1,$6,$7*
1,1,$1+$1,$8,$9*
0 Add four rect primitives between the rounded corners*
20,1,$1+$1,$2,$3,$4,$5,0*
20,1,$1+$1,$4,$5,$6,$7,0*
20,1,$1+$1,$6,$7,$8,$9,0*
20,1,$1+$1,$8,$9,$2,$3,0*%
%AMFreePoly0*
4,1,37,0.000000,0.796148,0.078414,0.796148,0.232228,0.765552,0.377117,0.705537,0.507515,0.618408,0.618408,0.507515,0.705537,0.377117,0.765552,0.232228,0.796148,0.078414,0.796148,-0.078414,0.765552,-0.232228,0.705537,-0.377117,0.618408,-0.507515,0.507515,-0.618408,0.377117,-0.705537,0.232228,-0.765552,0.078414,-0.796148,0.000000,-0.796148,0.000000,-0.800000,-0.600000,-0.800000,
-0.603843,-0.796157,-0.639018,-0.796157,-0.711114,-0.766294,-0.766294,-0.711114,-0.796157,-0.639018,-0.796157,-0.603843,-0.800000,-0.600000,-0.800000,0.600000,-0.796157,0.603843,-0.796157,0.639018,-0.766294,0.711114,-0.711114,0.766294,-0.639018,0.796157,-0.603843,0.796157,-0.600000,0.800000,0.000000,0.800000,0.000000,0.796148,0.000000,0.796148,$1*%
%AMFreePoly1*
4,1,37,0.603843,0.796157,0.639018,0.796157,0.711114,0.766294,0.766294,0.711114,0.796157,0.639018,0.796157,0.603843,0.800000,0.600000,0.800000,-0.600000,0.796157,-0.603843,0.796157,-0.639018,0.766294,-0.711114,0.711114,-0.766294,0.639018,-0.796157,0.603843,-0.796157,0.600000,-0.800000,0.000000,-0.800000,0.000000,-0.796148,-0.078414,-0.796148,-0.232228,-0.765552,-0.377117,-0.705537,
-0.507515,-0.618408,-0.618408,-0.507515,-0.705537,-0.377117,-0.765552,-0.232228,-0.796148,-0.078414,-0.796148,0.078414,-0.765552,0.232228,-0.705537,0.377117,-0.618408,0.507515,-0.507515,0.618408,-0.377117,0.705537,-0.232228,0.765552,-0.078414,0.796148,0.000000,0.796148,0.000000,0.800000,0.600000,0.800000,0.603843,0.796157,0.603843,0.796157,$1*%
G04 Aperture macros list end*
%ADD10C,1.600000*%
%ADD11FreePoly0,0.000000*%
%ADD12FreePoly1,0.000000*%
%ADD13RoundRect,0.200000X-0.600000X-0.600000X0.600000X-0.600000X0.600000X0.600000X-0.600000X0.600000X0*%
%ADD14C,2.200000*%
%ADD15C,1.850000*%
%ADD16C,2.100000*%
%ADD17C,1.700000*%
%ADD18R,1.700000X1.700000*%
%ADD19C,1.400000*%
G04 APERTURE END LIST*
D10*
%TO.C,A1*%
X111500000Y-52000000D03*
X111500000Y-54540000D03*
D11*
X111500000Y-57080000D03*
D10*
X111500000Y-59620000D03*
X111500000Y-62160000D03*
X111500000Y-64700000D03*
X111500000Y-67240000D03*
D11*
X111500000Y-69780000D03*
D10*
X111500000Y-72320000D03*
X111500000Y-74860000D03*
X111500000Y-77400000D03*
X111500000Y-79940000D03*
D11*
X111500000Y-82480000D03*
D10*
X111500000Y-85020000D03*
X111500000Y-87560000D03*
X111500000Y-90100000D03*
X111500000Y-92640000D03*
D11*
X111500000Y-95180000D03*
D10*
X111500000Y-97720000D03*
X111500000Y-100260000D03*
X93720000Y-100260000D03*
X93720000Y-97720000D03*
D12*
X93720000Y-95180000D03*
D10*
X93720000Y-92640000D03*
X93720000Y-90100000D03*
X93720000Y-87560000D03*
X93720000Y-85020000D03*
D12*
X93720000Y-82480000D03*
D10*
X93720000Y-79940000D03*
X93720000Y-77400000D03*
X93720000Y-74860000D03*
X93720000Y-72320000D03*
D12*
X93720000Y-69780000D03*
D10*
X93720000Y-67240000D03*
X93720000Y-64700000D03*
X93720000Y-62160000D03*
X93720000Y-59620000D03*
D12*
X93720000Y-57080000D03*
D10*
X93720000Y-54540000D03*
D13*
X93720000Y-52000000D03*
D14*
X105335000Y-52130000D03*
D15*
X105035000Y-55160000D03*
X100185000Y-55160000D03*
D14*
X99885000Y-52130000D03*
%TD*%
D16*
%TO.C,H4*%
X108312068Y-99622975D03*
%TD*%
%TO.C,H3*%
X96946183Y-99623282D03*
%TD*%
%TO.C,H2*%
X96919274Y-52623556D03*
%TD*%
%TO.C,H1*%
X108261122Y-52626853D03*
%TD*%
D17*
%TO.C,M1*%
X125000000Y-96040000D03*
X117380000Y-96040000D03*
D18*
X117380000Y-93500000D03*
D17*
X125000000Y-93500000D03*
X125000000Y-98580000D03*
X117380000Y-98580000D03*
%TD*%
D18*
%TO.C,LED4*%
X124500000Y-72000000D03*
D17*
X124500000Y-74540000D03*
%TD*%
D18*
%TO.C,LED3*%
X119000000Y-72000000D03*
D17*
X119000000Y-74540000D03*
%TD*%
D18*
%TO.C,LED2*%
X124500000Y-64000000D03*
D17*
X124500000Y-66540000D03*
%TD*%
D18*
%TO.C,LED1*%
X119000000Y-64000000D03*
D17*
X119000000Y-66540000D03*
%TD*%
D18*
%TO.C,I2C1*%
X117380000Y-81000000D03*
D17*
X119920000Y-81000000D03*
X122460000Y-81000000D03*
X125000000Y-81000000D03*
%TD*%
D19*
%TO.C,R4*%
X126500000Y-51500000D03*
X126500000Y-59120000D03*
%TD*%
%TO.C,R3*%
X123000000Y-51500000D03*
X123000000Y-59120000D03*
%TD*%
%TO.C,R2*%
X119500000Y-51500000D03*
X119500000Y-59120000D03*
%TD*%
%TO.C,R1*%
X116000000Y-51500000D03*
X116000000Y-59120000D03*
%TD*%
D17*
%TO.C,NeoPix6*%
X87120000Y-89000000D03*
X84580000Y-89000000D03*
D18*
X82040000Y-89000000D03*
%TD*%
D17*
%TO.C,NeoPix5*%
X87040000Y-83500000D03*
X84500000Y-83500000D03*
D18*
X81960000Y-83500000D03*
%TD*%
%TO.C,NeoPix8*%
X81960000Y-101000000D03*
D17*
X84500000Y-101000000D03*
X87040000Y-101000000D03*
%TD*%
D18*
%TO.C,NeoPix7*%
X81960000Y-95000000D03*
D17*
X84500000Y-95000000D03*
X87040000Y-95000000D03*
%TD*%
D18*
%TO.C,NeoPix4*%
X82040000Y-78000000D03*
D17*
X84580000Y-78000000D03*
X87120000Y-78000000D03*
%TD*%
D18*
%TO.C,NeoPix3*%
X81960000Y-72500000D03*
D17*
X84500000Y-72500000D03*
X87040000Y-72500000D03*
%TD*%
D18*
%TO.C,NeoPix2*%
X81920000Y-67000000D03*
D17*
X84460000Y-67000000D03*
X87000000Y-67000000D03*
%TD*%
D18*
%TO.C,NeoPix1*%
X81920000Y-61500000D03*
D17*
X84460000Y-61500000D03*
X87000000Y-61500000D03*
%TD*%
M02*
