M48
; DRILL file {KiCad 9.0.7} date 2026-03-12T18:11:07+0000
; FORMAT={-:-/ absolute / metric / decimal}
; #@! TF.CreationDate,2026-03-12T18:11:07+00:00
; #@! TF.GenerationSoftware,Kicad,Pcbnew,9.0.7
; #@! TF.FileFunction,Plated,1,2,PTH
FMAT,2
METRIC
; #@! TA.AperFunction,Plated,PTH,ViaDrill
T1C0.300
; #@! TA.AperFunction,Plated,PTH,ComponentDrill
T2C0.700
; #@! TA.AperFunction,Plated,PTH,ComponentDrill
T3C1.000
%
G90
G05
T1
X107.5Y-84.5
X107.5Y-87.5
T2
X116.0Y-51.5
X116.0Y-59.12
X119.5Y-51.5
X119.5Y-59.12
X123.0Y-51.5
X123.0Y-59.12
X126.5Y-51.5
X126.5Y-59.12
T3
X81.92Y-61.5
X81.92Y-67.0
X81.96Y-72.5
X81.96Y-83.5
X81.96Y-95.0
X81.96Y-101.0
X82.04Y-78.0
X82.04Y-89.0
X84.46Y-61.5
X84.46Y-67.0
X84.5Y-72.5
X84.5Y-83.5
X84.5Y-95.0
X84.5Y-101.0
X84.58Y-78.0
X84.58Y-89.0
X87.0Y-61.5
X87.0Y-67.0
X87.04Y-72.5
X87.04Y-83.5
X87.04Y-95.0
X87.04Y-101.0
X87.12Y-78.0
X87.12Y-89.0
X93.72Y-52.0
X93.72Y-54.54
X93.72Y-57.08
X93.72Y-59.62
X93.72Y-62.16
X93.72Y-64.7
X93.72Y-67.24
X93.72Y-69.78
X93.72Y-72.32
X93.72Y-74.86
X93.72Y-77.4
X93.72Y-79.94
X93.72Y-82.48
X93.72Y-85.02
X93.72Y-87.56
X93.72Y-90.1
X93.72Y-92.64
X93.72Y-95.18
X93.72Y-97.72
X93.72Y-100.26
X111.5Y-52.0
X111.5Y-54.54
X111.5Y-57.08
X111.5Y-59.62
X111.5Y-62.16
X111.5Y-64.7
X111.5Y-67.24
X111.5Y-69.78
X111.5Y-72.32
X111.5Y-74.86
X111.5Y-77.4
X111.5Y-79.94
X111.5Y-82.48
X111.5Y-85.02
X111.5Y-87.56
X111.5Y-90.1
X111.5Y-92.64
X111.5Y-95.18
X111.5Y-97.72
X111.5Y-100.26
X117.38Y-81.0
X117.38Y-93.5
X117.38Y-96.04
X117.38Y-98.58
X119.0Y-64.0
X119.0Y-66.54
X119.0Y-72.0
X119.0Y-74.54
X119.92Y-81.0
X122.46Y-81.0
X124.5Y-64.0
X124.5Y-66.54
X124.5Y-72.0
X124.5Y-74.54
X125.0Y-81.0
X125.0Y-93.5
X125.0Y-96.04
X125.0Y-98.58
M30
