%TF.GenerationSoftware,KiCad,Pcbnew,9.0.7*%
%TF.CreationDate,2026-03-12T18:10:57+00:00*%
%TF.ProjectId,jellyboard,6a656c6c-7962-46f6-9172-642e6b696361,rev?*%
%TF.SameCoordinates,Original*%
%TF.FileFunction,Copper,L2,Bot*%
%TF.FilePolarity,Positive*%
%FSLAX46Y46*%
G04 Gerber Fmt 4.6, Leading zero omitted, Abs format (unit mm)*
G04 Created by KiCad (PCBNEW 9.0.7) date 2026-03-12 18:10:57*
%MOMM*%
%LPD*%
G01*
G04 APERTURE LIST*
G04 Aperture macros list*
%AMRoundRect*
0 Rectangle with rounded corners*
0 $1 Rounding radius*
0 $2 $3 $4 $5 $6 $7 $8 $9 X,Y pos of 4 corners*
0 Add a 4 corners polygon primitive as box body*
4,1,4,$2,$3,$4,$5,$6,$7,$8,$9,$2,$3,0*
0 Add four circle primitives for the rounded corners*
1,1,$1+$1,$2,$3*
1,1,$1+$1,$4,$5*
1,1,$1+$1,$6,$7*
1,1,$1+$1,$8,$9*
0 Add four rect primitives between the rounded corners*
20,1,$1+$1,$2,$3,$4,$5,0*
20,1,$1+$1,$4,$5,$6,$7,0*
20,1,$1+$1,$6,$7,$8,$9,0*
20,1,$1+$1,$8,$9,$2,$3,0*%
%AMFreePoly0*
4,1,37,0.000000,0.796148,0.078414,0.796148,0.232228,0.765552,0.377117,0.705537,0.507515,0.618408,0.618408,0.507515,0.705537,0.377117,0.765552,0.232228,0.796148,0.078414,0.796148,-0.078414,0.765552,-0.232228,0.705537,-0.377117,0.618408,-0.507515,0.507515,-0.618408,0.377117,-0.705537,0.232228,-0.765552,0.078414,-0.796148,0.000000,-0.796148,0.000000,-0.800000,-0.600000,-0.800000,
-0.603843,-0.796157,-0.639018,-0.796157,-0.711114,-0.766294,-0.766294,-0.711114,-0.796157,-0.639018,-0.796157,-0.603843,-0.800000,-0.600000,-0.800000,0.600000,-0.796157,0.603843,-0.796157,0.639018,-0.766294,0.711114,-0.711114,0.766294,-0.639018,0.796157,-0.603843,0.796157,-0.600000,0.800000,0.000000,0.800000,0.000000,0.796148,0.000000,0.796148,$1*%
%AMFreePoly1*
4,1,37,0.603843,0.796157,0.639018,0.796157,0.711114,0.766294,0.766294,0.711114,0.796157,0.639018,0.796157,0.603843,0.800000,0.600000,0.800000,-0.600000,0.796157,-0.603843,0.796157,-0.639018,0.766294,-0.711114,0.711114,-0.766294,0.639018,-0.796157,0.603843,-0.796157,0.600000,-0.800000,0.000000,-0.800000,0.000000,-0.796148,-0.078414,-0.796148,-0.232228,-0.765552,-0.377117,-0.705537,
-0.507515,-0.618408,-0.618408,-0.507515,-0.705537,-0.377117,-0.765552,-0.232228,-0.796148,-0.078414,-0.796148,0.078414,-0.765552,0.232228,-0.705537,0.377117,-0.618408,0.507515,-0.507515,0.618408,-0.377117,0.705537,-0.232228,0.765552,-0.078414,0.796148,0.000000,0.796148,0.000000,0.800000,0.600000,0.800000,0.603843,0.796157,0.603843,0.796157,$1*%
G04 Aperture macros list end*
%TA.AperFunction,ComponentPad*%
%ADD10C,1.600000*%
%TD*%
%TA.AperFunction,ComponentPad*%
%ADD11FreePoly0,0.000000*%
%TD*%
%TA.AperFunction,ComponentPad*%
%ADD12FreePoly1,0.000000*%
%TD*%
%TA.AperFunction,ComponentPad*%
%ADD13RoundRect,0.200000X-0.600000X-0.600000X0.600000X-0.600000X0.600000X0.600000X-0.600000X0.600000X0*%
%TD*%
%TA.AperFunction,ComponentPad*%
%ADD14C,1.700000*%
%TD*%
%TA.AperFunction,ComponentPad*%
%ADD15R,1.700000X1.700000*%
%TD*%
%TA.AperFunction,ComponentPad*%
%ADD16C,1.400000*%
%TD*%
%TA.AperFunction,ViaPad*%
%ADD17C,0.600000*%
%TD*%
%TA.AperFunction,Conductor*%
%ADD18C,0.200000*%
%TD*%
G04 APERTURE END LIST*
D10*
%TO.P,A1,40,VBUS*%
%TO.N,/5V*%
X111500000Y-52000000D03*
%TO.P,A1,39,VSYS*%
%TO.N,unconnected-(A1-VSYS-Pad39)*%
X111500000Y-54540000D03*
D11*
%TO.P,A1,38,GND*%
%TO.N,/GND*%
X111500000Y-57080000D03*
D10*
%TO.P,A1,37,3V3_EN*%
%TO.N,unconnected-(A1-3V3_EN-Pad37)*%
X111500000Y-59620000D03*
%TO.P,A1,36,3V3*%
%TO.N,Net-(A1-3V3)*%
X111500000Y-62160000D03*
%TO.P,A1,35,ADC_VREF*%
%TO.N,unconnected-(A1-ADC_VREF-Pad35)*%
X111500000Y-64700000D03*
%TO.P,A1,34,GPIO28_ADC2*%
%TO.N,unconnected-(A1-GPIO28_ADC2-Pad34)*%
X111500000Y-67240000D03*
D11*
%TO.P,A1,33,AGND*%
%TO.N,unconnected-(A1-AGND-Pad33)*%
X111500000Y-69780000D03*
D10*
%TO.P,A1,32,GPIO27_ADC1*%
%TO.N,unconnected-(A1-GPIO27_ADC1-Pad32)*%
X111500000Y-72320000D03*
%TO.P,A1,31,GPIO26_ADC0*%
%TO.N,unconnected-(A1-GPIO26_ADC0-Pad31)*%
X111500000Y-74860000D03*
%TO.P,A1,30,RUN*%
%TO.N,unconnected-(A1-RUN-Pad30)*%
X111500000Y-77400000D03*
%TO.P,A1,29,GPIO22*%
%TO.N,unconnected-(A1-GPIO22-Pad29)*%
X111500000Y-79940000D03*
D11*
%TO.P,A1,28,GND*%
%TO.N,/GND*%
X111500000Y-82480000D03*
D10*
%TO.P,A1,27,GPIO21*%
%TO.N,unconnected-(A1-GPIO21-Pad27)*%
X111500000Y-85020000D03*
%TO.P,A1,26,GPIO20*%
%TO.N,unconnected-(A1-GPIO20-Pad26)*%
X111500000Y-87560000D03*
%TO.P,A1,25,GPIO19*%
%TO.N,unconnected-(A1-GPIO19-Pad25)*%
X111500000Y-90100000D03*
%TO.P,A1,24,GPIO18*%
%TO.N,Net-(A1-GPIO18)*%
X111500000Y-92640000D03*
D11*
%TO.P,A1,23,GND*%
%TO.N,/GND*%
X111500000Y-95180000D03*
D10*
%TO.P,A1,22,GPIO17*%
%TO.N,Net-(A1-GPIO17)*%
X111500000Y-97720000D03*
%TO.P,A1,21,GPIO16*%
%TO.N,Net-(A1-GPIO16)*%
X111500000Y-100260000D03*
%TO.P,A1,20,GPIO15*%
%TO.N,Net-(A1-GPIO15)*%
X93720000Y-100260000D03*
%TO.P,A1,19,GPIO14*%
%TO.N,Net-(A1-GPIO14)*%
X93720000Y-97720000D03*
D12*
%TO.P,A1,18,GND*%
%TO.N,/GND*%
X93720000Y-95180000D03*
D10*
%TO.P,A1,17,GPIO13*%
%TO.N,Net-(A1-GPIO13)*%
X93720000Y-92640000D03*
%TO.P,A1,16,GPIO12*%
%TO.N,Net-(A1-GPIO12)*%
X93720000Y-90100000D03*
%TO.P,A1,15,GPIO11*%
%TO.N,Net-(A1-GPIO11)*%
X93720000Y-87560000D03*
%TO.P,A1,14,GPIO10*%
%TO.N,Net-(A1-GPIO10)*%
X93720000Y-85020000D03*
D12*
%TO.P,A1,13,GND*%
%TO.N,/GND*%
X93720000Y-82480000D03*
D10*
%TO.P,A1,12,GPIO9*%
%TO.N,Net-(A1-GPIO9)*%
X93720000Y-79940000D03*
%TO.P,A1,11,GPIO8*%
%TO.N,Net-(A1-GPIO8)*%
X93720000Y-77400000D03*
%TO.P,A1,10,GPIO7*%
%TO.N,Net-(A1-GPIO7)*%
X93720000Y-74860000D03*
%TO.P,A1,9,GPIO6*%
%TO.N,Net-(A1-GPIO6)*%
X93720000Y-72320000D03*
D12*
%TO.P,A1,8,GND*%
%TO.N,/GND*%
X93720000Y-69780000D03*
D10*
%TO.P,A1,7,GPIO5*%
%TO.N,Net-(A1-GPIO5)*%
X93720000Y-67240000D03*
%TO.P,A1,6,GPIO4*%
%TO.N,Net-(A1-GPIO4)*%
X93720000Y-64700000D03*
%TO.P,A1,5,GPIO3*%
%TO.N,Net-(A1-GPIO3)*%
X93720000Y-62160000D03*
%TO.P,A1,4,GPIO2*%
%TO.N,/D*%
X93720000Y-59620000D03*
D12*
%TO.P,A1,3,GND*%
%TO.N,/GND*%
X93720000Y-57080000D03*
D10*
%TO.P,A1,2,GPIO1*%
%TO.N,unconnected-(A1-GPIO1-Pad2)*%
X93720000Y-54540000D03*
D13*
%TO.P,A1,1,GPIO0*%
%TO.N,unconnected-(A1-GPIO0-Pad1)*%
X93720000Y-52000000D03*
%TD*%
D14*
%TO.P,M1,WS*%
%TO.N,Net-(A1-GPIO17)*%
X125000000Y-96040000D03*
%TO.P,M1,VDD*%
%TO.N,Net-(A1-3V3)*%
X117380000Y-96040000D03*
D15*
%TO.P,M1,SD*%
%TO.N,Net-(A1-GPIO18)*%
X117380000Y-93500000D03*
D14*
%TO.P,M1,SCK*%
%TO.N,Net-(A1-GPIO16)*%
X125000000Y-93500000D03*
%TO.P,M1,L/R*%
%TO.N,/GND*%
X125000000Y-98580000D03*
%TO.P,M1,GND*%
X117380000Y-98580000D03*
%TD*%
D15*
%TO.P,LED4,1,Pin_1*%
%TO.N,Net-(A1-GPIO15)*%
X124500000Y-72000000D03*
D14*
%TO.P,LED4,2,Pin_2*%
%TO.N,Net-(LED4-Pin_2)*%
X124500000Y-74540000D03*
%TD*%
D15*
%TO.P,LED3,1,Pin_1*%
%TO.N,Net-(A1-GPIO14)*%
X119000000Y-72000000D03*
D14*
%TO.P,LED3,2,Pin_2*%
%TO.N,Net-(LED3-Pin_2)*%
X119000000Y-74540000D03*
%TD*%
D15*
%TO.P,LED2,1,Pin_1*%
%TO.N,Net-(A1-GPIO13)*%
X124500000Y-64000000D03*
D14*
%TO.P,LED2,2,Pin_2*%
%TO.N,Net-(LED2-Pin_2)*%
X124500000Y-66540000D03*
%TD*%
D15*
%TO.P,LED1,1,Pin_1*%
%TO.N,Net-(A1-GPIO12)*%
X119000000Y-64000000D03*
D14*
%TO.P,LED1,2,Pin_2*%
%TO.N,Net-(LED1-Pin_2)*%
X119000000Y-66540000D03*
%TD*%
D15*
%TO.P,I2C1,1,Pin_1*%
%TO.N,/GND*%
X117380000Y-81000000D03*
D14*
%TO.P,I2C1,2,Pin_2*%
%TO.N,Net-(A1-3V3)*%
X119920000Y-81000000D03*
%TO.P,I2C1,3,Pin_3*%
%TO.N,Net-(A1-GPIO10)*%
X122460000Y-81000000D03*
%TO.P,I2C1,4,Pin_4*%
%TO.N,Net-(A1-GPIO11)*%
X125000000Y-81000000D03*
%TD*%
D16*
%TO.P,R4,1*%
%TO.N,/GND*%
X126500000Y-51500000D03*
%TO.P,R4,2*%
%TO.N,Net-(LED4-Pin_2)*%
X126500000Y-59120000D03*
%TD*%
%TO.P,R3,1*%
%TO.N,/GND*%
X123000000Y-51500000D03*
%TO.P,R3,2*%
%TO.N,Net-(LED3-Pin_2)*%
X123000000Y-59120000D03*
%TD*%
%TO.P,R2,1*%
%TO.N,/GND*%
X119500000Y-51500000D03*
%TO.P,R2,2*%
%TO.N,Net-(LED2-Pin_2)*%
X119500000Y-59120000D03*
%TD*%
%TO.P,R1,1*%
%TO.N,/GND*%
X116000000Y-51500000D03*
%TO.P,R1,2*%
%TO.N,Net-(LED1-Pin_2)*%
X116000000Y-59120000D03*
%TD*%
D14*
%TO.P,NeoPix6,3,Pin_3*%
%TO.N,/GND*%
X87120000Y-89000000D03*
%TO.P,NeoPix6,2,Pin_2*%
%TO.N,Net-(A1-GPIO7)*%
X84580000Y-89000000D03*
D15*
%TO.P,NeoPix6,1,Pin_1*%
%TO.N,/5V*%
X82040000Y-89000000D03*
%TD*%
D14*
%TO.P,NeoPix5,3,Pin_3*%
%TO.N,/GND*%
X87040000Y-83500000D03*
%TO.P,NeoPix5,2,Pin_2*%
%TO.N,Net-(A1-GPIO6)*%
X84500000Y-83500000D03*
D15*
%TO.P,NeoPix5,1,Pin_1*%
%TO.N,/5V*%
X81960000Y-83500000D03*
%TD*%
%TO.P,NeoPix8,1,Pin_1*%
%TO.N,/5V*%
X81960000Y-101000000D03*
D14*
%TO.P,NeoPix8,2,Pin_2*%
%TO.N,Net-(A1-GPIO9)*%
X84500000Y-101000000D03*
%TO.P,NeoPix8,3,Pin_3*%
%TO.N,/GND*%
X87040000Y-101000000D03*
%TD*%
D15*
%TO.P,NeoPix7,1,Pin_1*%
%TO.N,/5V*%
X81960000Y-95000000D03*
D14*
%TO.P,NeoPix7,2,Pin_2*%
%TO.N,Net-(A1-GPIO8)*%
X84500000Y-95000000D03*
%TO.P,NeoPix7,3,Pin_3*%
%TO.N,/GND*%
X87040000Y-95000000D03*
%TD*%
D15*
%TO.P,NeoPix4,1,Pin_1*%
%TO.N,/5V*%
X82040000Y-78000000D03*
D14*
%TO.P,NeoPix4,2,Pin_2*%
%TO.N,Net-(A1-GPIO5)*%
X84580000Y-78000000D03*
%TO.P,NeoPix4,3,Pin_3*%
%TO.N,/GND*%
X87120000Y-78000000D03*
%TD*%
D15*
%TO.P,NeoPix3,1,Pin_1*%
%TO.N,/5V*%
X81960000Y-72500000D03*
D14*
%TO.P,NeoPix3,2,Pin_2*%
%TO.N,Net-(A1-GPIO4)*%
X84500000Y-72500000D03*
%TO.P,NeoPix3,3,Pin_3*%
%TO.N,/GND*%
X87040000Y-72500000D03*
%TD*%
D15*
%TO.P,NeoPix2,1,Pin_1*%
%TO.N,/5V*%
X81920000Y-67000000D03*
D14*
%TO.P,NeoPix2,2,Pin_2*%
%TO.N,Net-(A1-GPIO3)*%
X84460000Y-67000000D03*
%TO.P,NeoPix2,3,Pin_3*%
%TO.N,/GND*%
X87000000Y-67000000D03*
%TD*%
D15*
%TO.P,NeoPix1,1,Pin_1*%
%TO.N,/5V*%
X81920000Y-61500000D03*
D14*
%TO.P,NeoPix1,2,Pin_2*%
%TO.N,/D*%
X84460000Y-61500000D03*
%TO.P,NeoPix1,3,Pin_3*%
%TO.N,/GND*%
X87000000Y-61500000D03*
%TD*%
D17*
%TO.N,Net-(A1-GPIO11)*%
X107500000Y-87500000D03*
%TO.N,Net-(A1-GPIO10)*%
X107500000Y-84500000D03*
%TD*%
D18*
%TO.N,Net-(A1-GPIO11)*%
X108879000Y-86121000D02*
X119879000Y-86121000D01*
X107500000Y-87500000D02*
X108879000Y-86121000D01*
X119879000Y-86121000D02*
X125000000Y-81000000D01*
%TO.N,Net-(A1-GPIO10)*%
X119541000Y-83919000D02*
X122460000Y-81000000D01*
X108081000Y-83919000D02*
X119541000Y-83919000D01*
X107500000Y-84500000D02*
X108081000Y-83919000D01*
%TO.N,Net-(A1-GPIO17)*%
X111791000Y-97429000D02*
X111500000Y-97720000D01*
X123611000Y-97429000D02*
X111791000Y-97429000D01*
X125000000Y-96040000D02*
X123611000Y-97429000D01*
%TO.N,Net-(A1-GPIO16)*%
X126240000Y-100260000D02*
X111500000Y-100260000D01*
X127000000Y-95500000D02*
X127000000Y-99500000D01*
X127000000Y-99500000D02*
X126240000Y-100260000D01*
X125000000Y-93500000D02*
X127000000Y-95500000D01*
%TO.N,Net-(A1-GPIO18)*%
X117380000Y-93500000D02*
X112360000Y-93500000D01*
X112360000Y-93500000D02*
X111500000Y-92640000D01*
%TO.N,Net-(A1-GPIO12)*%
X112114000Y-70886000D02*
X119000000Y-64000000D01*
X110399000Y-73421000D02*
X110399000Y-71863950D01*
X110399000Y-71863950D02*
X111376950Y-70886000D01*
X93720000Y-90100000D02*
X110399000Y-73421000D01*
X111376950Y-70886000D02*
X112114000Y-70886000D01*
%TO.N,Net-(A1-GPIO13)*%
X115079000Y-73421000D02*
X124500000Y-64000000D01*
X111043950Y-73421000D02*
X115079000Y-73421000D01*
X110399000Y-74065950D02*
X111043950Y-73421000D01*
X110399000Y-75961000D02*
X110399000Y-74065950D01*
X93720000Y-92640000D02*
X110399000Y-75961000D01*
%TO.N,Net-(A1-GPIO14)*%
X111381950Y-75961000D02*
X115039000Y-75961000D01*
X95008000Y-92334950D02*
X111381950Y-75961000D01*
X95008000Y-96432000D02*
X95008000Y-92334950D01*
X93720000Y-97720000D02*
X95008000Y-96432000D01*
X115039000Y-75961000D02*
X119000000Y-72000000D01*
%TO.N,Net-(A1-GPIO15)*%
X95409000Y-93088164D02*
X109996164Y-78501000D01*
X95409000Y-98571000D02*
X95409000Y-93088164D01*
X117999000Y-78501000D02*
X124500000Y-72000000D01*
X93720000Y-100260000D02*
X95409000Y-98571000D01*
X109996164Y-78501000D02*
X117999000Y-78501000D01*
%TO.N,/GND*%
X123000000Y-51500000D02*
X126500000Y-51500000D01*
X119500000Y-51500000D02*
X123000000Y-51500000D01*
X116000000Y-51500000D02*
X119500000Y-51500000D01*
X111500000Y-57080000D02*
X116000000Y-52580000D01*
X116000000Y-52580000D02*
X116000000Y-51500000D01*
X89300000Y-61500000D02*
X93720000Y-57080000D01*
X87000000Y-61500000D02*
X89300000Y-61500000D01*
X87040000Y-95000000D02*
X87040000Y-101000000D01*
X87120000Y-94920000D02*
X87040000Y-95000000D01*
X87120000Y-89000000D02*
X87120000Y-94920000D01*
X87040000Y-84460000D02*
X87120000Y-84540000D01*
X87120000Y-84540000D02*
X87120000Y-89000000D01*
X87040000Y-83500000D02*
X87040000Y-84460000D01*
X87120000Y-83420000D02*
X87040000Y-83500000D01*
X87120000Y-78000000D02*
X87120000Y-83420000D01*
X87120000Y-72620000D02*
X87120000Y-78000000D01*
X87040000Y-72540000D02*
X87120000Y-72620000D01*
X87040000Y-72500000D02*
X87040000Y-72540000D01*
X87040000Y-67540000D02*
X87040000Y-72500000D01*
X87000000Y-67500000D02*
X87040000Y-67540000D01*
X87000000Y-67000000D02*
X87000000Y-67500000D01*
X87000000Y-61500000D02*
X87000000Y-67000000D01*
%TD*%
M02*
